<svg xmlns="http://www.w3.org/2000/svg" xml:space="preserve" viewBox="0 0 47.5 47.5" enable-background="new 0 0 47.5 47.5" id="Input">
  <defs>
    <clipPath id="a">
      <path d="M0 38h38V0H0v38Z" fill="#000000" class="color000000 svgShape"></path>
    </clipPath>
  </defs>
  <g clip-path="url(#a)" transform="matrix(1.25 0 0 -1.25 0 47.5)" fill="#000000" class="color000000 svgShape">
    <path d="M0 0a4 4 0 0 0-4-4h-28a4 4 0 0 0-4 4v28a4 4 0 0 0 4 4h28a4 4 0 0 0 4-4V0Z" transform="translate(37 5)" fill="#dadada" fill-opacity="1" fill-rule="nonzero" stroke="none" class="color3b88c3 svgShape"></path>
    <path d="M0 0h-1.121c-.912 0-1.292.665-1.292 1.311 0 .665.475 1.311 1.292 1.311h2.698c.817 0 1.273-.589 1.273-1.349v-10.81c0-.949-.608-1.481-1.425-1.481-.817 0-1.425.532-1.425 1.481V0Z" transform="translate(10.613 30.904)" fill="#ffffff" fill-opacity="1" fill-rule="nonzero" stroke="none" class="colorffffff svgShape"></path>
    <path d="M0 0c0-1.196-.513-2.241-1.558-2.906C-.19-3.533.76-4.807.76-6.307c0-2.28-2.09-4.198-4.788-4.198-2.811 0-4.559 2.07-4.559 3.571 0 .741.779 1.273 1.463 1.273 1.291 0 .988-2.223 3.134-2.223.988 0 1.786.76 1.786 1.767 0 2.66-3.23.703-3.23 2.944 0 1.995 2.698.647 2.698 2.755 0 .722-.513 1.273-1.368 1.273-1.804 0-1.557-1.862-2.849-1.862-.779 0-1.235.703-1.235 1.406 0 1.482 2.033 3.078 4.142 3.078C-1.311 3.477 0 1.482 0 0" transform="translate(15.742 14.277)" fill="#ffffff" fill-opacity="1" fill-rule="nonzero" stroke="none" class="colorffffff svgShape"></path>
    <path d="M0 0c.836 0 1.48-.38 1.48-1.254S.836-2.508.113-2.508h-6.345c-.835 0-1.481.38-1.481 1.254 0 .399.246.741.437.969 1.577 1.881 3.286 3.59 4.729 5.68.343.494.666 1.083.666 1.767 0 .778-.59 1.463-1.368 1.463-2.185 0-1.14-3.078-2.964-3.078-.912 0-1.387.646-1.387 1.387 0 2.394 2.128 4.312 4.465 4.312 2.336 0 4.217-1.538 4.217-3.951 0-2.641-2.944-5.262-4.559-7.295H0Z" transform="translate(29.115 22.508)" fill="#ffffff" fill-opacity="1" fill-rule="nonzero" stroke="none" class="colorffffff svgShape"></path>
    <path d="M0 0h-.038l-2.565-5.3H0V0Zm-4.578-7.808c-.931 0-1.33.627-1.33 1.121 0 .418.152.646.266.836l4.255 7.713c.418.76.95 1.102 1.939 1.102 1.101 0 2.183-.703 2.183-2.432V-5.3h.324c.741 0 1.33-.494 1.33-1.254 0-.759-.589-1.254-1.33-1.254h-.324v-1.614c0-1.007-.398-1.482-1.367-1.482S0-10.429 0-9.422v1.614h-4.578z" transform="translate(26.759 14.79)" fill="#ffffff" fill-opacity="1" fill-rule="nonzero" stroke="none" class="colorffffff svgShape"></path>
  </g>
</svg>
